<svg width="50" height="54" viewBox="0 0 50 54" fill="none" xmlns="http://www.w3.org/2000/svg">
<path d="M2.27276 54C1.66999 54 1.0919 53.763 0.665676 53.341C0.239451 52.919 0 52.3467 0 51.75V2.24963C6.76167e-05 1.85864 0.103048 1.47442 0.298793 1.13484C0.494537 0.795253 0.776287 0.512027 1.11627 0.313075C1.45626 0.114122 1.84274 0.00631094 2.23764 0.000268748C2.63253 -0.00577344 3.0222 0.0901618 3.36823 0.278618L48.8234 25.0288C49.1798 25.223 49.4769 25.5084 49.6839 25.8551C49.8908 26.2018 50 26.5971 50 26.9998C50 27.4025 49.8908 27.7979 49.6839 28.1445C49.4769 28.4912 49.1798 28.7766 48.8234 28.9708L3.36823 53.721C3.03266 53.9039 2.65583 53.9999 2.27276 54Z" fill="white" fill-opacity="0.75"/>
</svg>
